<svg xmlns="http://www.w3.org/2000/svg" width="222.38" height="31.804" viewBox="0 0 222.38 31.804"><defs><style>.a{fill:#fff;}</style></defs><path class="a" d="M6.358-11.189H2.905l-2.341-.1a1.463,1.463,0,0,0-.336.722,2.614,2.614,0,0,0-.05.78,1.08,1.08,0,0,0,.112.44H.614a.884.884,0,0,1,.544-.647A2.67,2.67,0,0,1,2.4-10.251H3.7a7.866,7.866,0,0,1,.075,1.295l.008,2.681q.017,2.689-.008,6V0H5.628q-.1-.623-.1-.747-.017-.664-.021-1.859t0-2.465q.008-1.27.021-2.411T5.553-9.43q.008-.805.008-.822h1.3a2.67,2.67,0,0,1,1.241.257.884.884,0,0,1,.544.647h.324a1.08,1.08,0,0,0,.112-.44,2.692,2.692,0,0,0-.046-.78,1.436,1.436,0,0,0-.332-.722Zm5.514,2.183q0-.382-.029-.685a3.841,3.841,0,0,0-.071-.481,2.238,2.238,0,0,0-.1-.324.916.916,0,0,0-.12-.224,1.54,1.54,0,0,1-.12-.178l.116-.291h2.557l2.905-.05a1.26,1.26,0,0,1,.278.627,2.988,2.988,0,0,1,.062.8.8.8,0,0,1-.125.469h-.315A1,1,0,0,0,16.33-10a2.8,2.8,0,0,0-1.212-.286l-1.444-.05q-.116,2.017-.116,4.15H16.23a1.217,1.217,0,0,0,.39-.054.356.356,0,0,0,.191-.112l.042-.058q.033,0,.033.34a.993.993,0,0,1-.058.353.948.948,0,0,1-.133.249.607.607,0,0,1-.224.166,2.149,2.149,0,0,1-.253.1,1.436,1.436,0,0,1-.3.05q-.2.017-.282.017h-.278l-.419-.008-.755-.017q-.353-.008-.643,0-.017,1.677.05,3.984a.255.255,0,0,0,.033.1h3.229a1.217,1.217,0,0,0,.39-.054.419.419,0,0,0,.2-.112l.042-.058q.033,0,.033.34a1.106,1.106,0,0,1-.066.4.59.59,0,0,1-.2.27,1.754,1.754,0,0,1-.266.162,1.075,1.075,0,0,1-.336.087q-.208.025-.328.029t-.328,0H11.856l.017-1.154ZM20.15-.83,23.1-5.47l-1.619-3q-.465-.888-.739-1.374a4.623,4.623,0,0,0-.452-.693,1.612,1.612,0,0,0-.477-.365l.125-.291a2.779,2.779,0,0,1,1.17-.232,1.408,1.408,0,0,1,1.021.307q.266.573.4.9t.56,1.129q.423.8,1.212,2.2l.357-.647.888-1.444q.108-.2.232-.394A2.464,2.464,0,0,0,26-9.828a1.369,1.369,0,0,0,.1-.473.9.9,0,0,0-.183-.6l.116-.291a1.863,1.863,0,0,1,.955-.232,1.772,1.772,0,0,1,.963.232,6.844,6.844,0,0,1-1.137,2.333L24.832-5.918,27.53-1a3.521,3.521,0,0,0,.344.51,4.936,4.936,0,0,0,.328.378L28.335,0H26.069l-2.4-4.458-.49.855L21.445-.921a4.477,4.477,0,0,0-.266.606L21.072,0H19.561ZM34.994-11.58a13.5,13.5,0,0,0,.407,1.444l2.988,8.774A5.535,5.535,0,0,0,38.987,0H36.928a2.522,2.522,0,0,0-.116-.581L35.675-3.91H31.732L30.437-.224a1.213,1.213,0,0,0-.029.133A.451.451,0,0,1,30.387,0H29.126l3.86-10.135a2.287,2.287,0,0,1,.257-.569,1.682,1.682,0,0,1,.315-.378,1.547,1.547,0,0,1,.374-.228,2.026,2.026,0,0,1,.365-.129q.149-.033.374-.075T34.994-11.58Zm.39,6.856L33.732-9.571,32.014-4.723ZM43.6.224A3.593,3.593,0,0,1,41.649-.3a1.464,1.464,0,0,1-.843-1.191,1.091,1.091,0,0,1,.183-.564q.108.382.921.735a4.024,4.024,0,0,0,1.61.353,3.664,3.664,0,0,0,.76-.075,2.546,2.546,0,0,0,.672-.245,1.275,1.275,0,0,0,.506-.486,1.457,1.457,0,0,0,.187-.755,1.612,1.612,0,0,0-.266-.876,2.957,2.957,0,0,0-.685-.747q-.419-.328-.93-.66t-1.025-.693a7.87,7.87,0,0,1-.934-.764,3.3,3.3,0,0,1-.685-.95A2.666,2.666,0,0,1,40.857-8.4a3.073,3.073,0,0,1,.2-1.1,3.172,3.172,0,0,1,.585-.971,2.749,2.749,0,0,1,1-.7A3.4,3.4,0,0,1,44-11.438a4.931,4.931,0,0,1,1.224.149,4.457,4.457,0,0,1,.838.278q.253.129.6.336a2.324,2.324,0,0,1,.079.564,2.6,2.6,0,0,1-.079.714,1.192,1.192,0,0,1-.291.573l-.324-.066a2.175,2.175,0,0,0-.61-.955,2.5,2.5,0,0,0-.843-.535,2.388,2.388,0,0,0-.789-.145,1.854,1.854,0,0,0-1.146.382,1.255,1.255,0,0,0-.506,1.063,1.476,1.476,0,0,0,.282.855,3.05,3.05,0,0,0,.73.73q.448.324,1,.656t1.092.706a8.219,8.219,0,0,1,.992.8,3.361,3.361,0,0,1,.73,1.021,2.975,2.975,0,0,1,.282,1.287A3.017,3.017,0,0,1,46.236-.722,3.748,3.748,0,0,1,43.6.224ZM65.821-4.491A25.233,25.233,0,0,0,66,0H64.186a6.684,6.684,0,0,1-.05-.988q0-.008,0-.656t.008-1.66q0-1.013,0-1.917H58.425v.73A24.15,24.15,0,0,0,58.616,0H56.74q.033-1.129.033-9.023a6.95,6.95,0,0,0-.042-.818,2.25,2.25,0,0,0-.108-.515,3.364,3.364,0,0,0-.141-.315,1.086,1.086,0,0,0-.149-.228l.116-.291.382-.108a2.976,2.976,0,0,1,.8-.108,2.235,2.235,0,0,1,.963.2q-.125,2.756-.166,5.1h5.728q.017-1.262.017-2.922a6.949,6.949,0,0,0-.042-.818,2.25,2.25,0,0,0-.108-.515,2.776,2.776,0,0,0-.145-.315,1.581,1.581,0,0,0-.145-.228l.116-.291.141-.05a2.6,2.6,0,0,1,.44-.112,3.176,3.176,0,0,1,.581-.054,2.422,2.422,0,0,1,.979.2Q65.821-7.388,65.821-4.491ZM72.248,0H70.372q.033-1.129.033-9.048a6.841,6.841,0,0,0-.042-.813,2.239,2.239,0,0,0-.108-.51,3.365,3.365,0,0,0-.141-.315,1.086,1.086,0,0,0-.149-.228l.116-.291.382-.108a2.976,2.976,0,0,1,.8-.108,2.235,2.235,0,0,1,.963.2q-.166,3.818-.166,6.732A24.149,24.149,0,0,0,72.248,0Zm8.818-11.389h.017a5.139,5.139,0,0,1,2.059.419,2.357,2.357,0,0,1,1.253.992,1.787,1.787,0,0,1-.332.834,1.705,1.705,0,0,1-.739.71l-.274-.216a1.112,1.112,0,0,0-.129-.461,2.663,2.663,0,0,0-.374-.56,1.931,1.931,0,0,0-.693-.494,2.383,2.383,0,0,0-1-.2,2.987,2.987,0,0,0-2.37,1.075,4.755,4.755,0,0,0-.975,3.067A8.144,8.144,0,0,0,77.729-4.3a5.751,5.751,0,0,0,.577,1.515,4.5,4.5,0,0,0,.843,1.071,3.269,3.269,0,0,0,1.021.656,2.978,2.978,0,0,0,1.1.212,4.867,4.867,0,0,0,.963-.133l.606-.125V-2.416a6.949,6.949,0,0,0-.042-.818,2.171,2.171,0,0,0-.108-.51,2.943,2.943,0,0,0-.145-.311,1.581,1.581,0,0,0-.145-.228l.116-.291.149-.058a3.923,3.923,0,0,1,.44-.108,2.956,2.956,0,0,1,.581-.058,2.283,2.283,0,0,1,.971.208q-.1,1.926-.116,2.689l.017,1.544-.481.083a18.655,18.655,0,0,1-3.769.5,4.179,4.179,0,0,1-1.751-.382,4.729,4.729,0,0,1-1.494-1.079A5.08,5.08,0,0,1,76.011-3a6.815,6.815,0,0,1-.39-2.349A6.983,6.983,0,0,1,76.3-8.479a5.112,5.112,0,0,1,1.917-2.142A5.307,5.307,0,0,1,81.066-11.389Zm16.388,6.9A25.233,25.233,0,0,0,97.636,0H95.818a6.684,6.684,0,0,1-.05-.988q0-.008,0-.656t.008-1.66q0-1.013,0-1.917H90.058v.73A24.149,24.149,0,0,0,90.249,0H88.373q.033-1.129.033-9.023a6.949,6.949,0,0,0-.042-.818,2.25,2.25,0,0,0-.108-.515,3.365,3.365,0,0,0-.141-.315,1.086,1.086,0,0,0-.149-.228l.116-.291.382-.108a2.976,2.976,0,0,1,.8-.108,2.235,2.235,0,0,1,.963.2Q90.1-8.45,90.058-6.1h5.728q.017-1.262.017-2.922a6.949,6.949,0,0,0-.042-.818,2.25,2.25,0,0,0-.108-.515,2.776,2.776,0,0,0-.145-.315,1.581,1.581,0,0,0-.145-.228l.116-.291.141-.05a2.6,2.6,0,0,1,.44-.112,3.176,3.176,0,0,1,.581-.054,2.422,2.422,0,0,1,.979.2Q97.454-7.388,97.454-4.491Zm4.584-4.516q0-.382-.029-.685a3.841,3.841,0,0,0-.071-.481,2.238,2.238,0,0,0-.1-.324.916.916,0,0,0-.12-.224,1.54,1.54,0,0,1-.12-.178l.116-.291h2.557l2.905-.05a1.26,1.26,0,0,1,.278.627,2.988,2.988,0,0,1,.062.8.8.8,0,0,1-.125.469h-.315A1,1,0,0,0,106.5-10a2.8,2.8,0,0,0-1.212-.286l-1.444-.05q-.116,2.017-.116,4.15H106.4a1.217,1.217,0,0,0,.39-.054.356.356,0,0,0,.191-.112l.042-.058q.033,0,.033.34a.993.993,0,0,1-.058.353.948.948,0,0,1-.133.249.607.607,0,0,1-.224.166,2.149,2.149,0,0,1-.253.1,1.436,1.436,0,0,1-.3.05q-.2.017-.282.017h-.278l-.419-.008-.755-.017q-.353-.008-.643,0-.017,1.677.05,3.984a.255.255,0,0,0,.033.1h3.229a1.217,1.217,0,0,0,.39-.054.419.419,0,0,0,.2-.112l.042-.058q.033,0,.033.34a1.106,1.106,0,0,1-.066.4.59.59,0,0,1-.2.27,1.754,1.754,0,0,1-.266.162,1.075,1.075,0,0,1-.336.087q-.208.025-.328.029t-.328,0h-4.134l.017-1.154ZM113.18,0H111.32V-.274q0-.523.012-2.013t0-2.237q0-.5.008-1.395t.008-1.386q0-.49-.017-1.175t-.062-1.083a5.49,5.49,0,0,0-.145-.776,1.5,1.5,0,0,0-.249-.56l.116-.291q3.129-.083,3.254-.083a5.793,5.793,0,0,1,1.046.091,4.033,4.033,0,0,1,1,.332,3.017,3.017,0,0,1,.872.614,2.807,2.807,0,0,1,.6,1A4.04,4.04,0,0,1,118-7.819a3.251,3.251,0,0,1-.639,1.98,3.654,3.654,0,0,1-1.7,1.266,19.686,19.686,0,0,1,1.951,2.258A29.956,29.956,0,0,0,119.571,0h-2.3a7.522,7.522,0,0,0-.627-1.017q-.411-.577-.867-1.116t-.959-1.112q-.5-.573-.892-1a4.313,4.313,0,0,1-.9-.1Q113.1-.6,113.18,0Zm.913-5.1a2.4,2.4,0,0,0,1.706-.647,2.22,2.22,0,0,0,.693-1.7,3.692,3.692,0,0,0-.237-1.374,2.245,2.245,0,0,0-.618-.913,2.633,2.633,0,0,0-.8-.469,2.225,2.225,0,0,0-.847-.133l-.921.033q-.05.614-.05,4.541v.506A2.559,2.559,0,0,0,114.093-5.1Zm14.215-3.91q0-.382-.029-.685a3.841,3.841,0,0,0-.071-.481,2.236,2.236,0,0,0-.1-.324.916.916,0,0,0-.12-.224,1.54,1.54,0,0,1-.12-.178l.116-.291h2.557l2.905-.05a1.26,1.26,0,0,1,.278.627,2.988,2.988,0,0,1,.062.8.8.8,0,0,1-.125.469h-.315a1,1,0,0,0-.581-.652,2.8,2.8,0,0,0-1.212-.286l-1.444-.05q-.116,2.017-.116,4.15h2.673a1.217,1.217,0,0,0,.39-.054.356.356,0,0,0,.191-.112l.042-.058q.033,0,.033.34a.993.993,0,0,1-.058.353.948.948,0,0,1-.133.249.607.607,0,0,1-.224.166,2.149,2.149,0,0,1-.253.1,1.436,1.436,0,0,1-.3.05q-.2.017-.282.017h-.278l-.419-.008-.755-.017q-.353-.008-.643,0-.017,1.677.05,3.984a.255.255,0,0,0,.033.1h3.229a1.217,1.217,0,0,0,.39-.054.419.419,0,0,0,.2-.112l.042-.058q.033,0,.033.34a1.106,1.106,0,0,1-.066.4.59.59,0,0,1-.2.27,1.755,1.755,0,0,1-.266.162,1.075,1.075,0,0,1-.336.087q-.208.025-.328.029t-.328,0h-4.134l.017-1.154ZM141.193,0h-3.6q.017-.291.017-.8V-8.874q0-.44-.017-.726a3.335,3.335,0,0,0-.12-.668,1.719,1.719,0,0,0-.3-.631l.116-.291,3.843-.083a5.567,5.567,0,0,1,1.569.187,4.946,4.946,0,0,1,1.424.639,4.868,4.868,0,0,1,1.162,1.058,4.75,4.75,0,0,1,.78,1.511,6.3,6.3,0,0,1,.286,1.942,7.231,7.231,0,0,1-.369,2.341,5.892,5.892,0,0,1-1.029,1.884,4.661,4.661,0,0,1-1.631,1.253A4.932,4.932,0,0,1,141.193,0Zm.208-.9a2.323,2.323,0,0,0,1.116-.3,3.35,3.35,0,0,0,.988-.826,4.214,4.214,0,0,0,.71-1.316,5.3,5.3,0,0,0,.282-1.7,6.329,6.329,0,0,0-.535-2.7,4.653,4.653,0,0,0-1.515-1.922,3.3,3.3,0,0,0-2.1-.652l-.955.033q0,.058-.042,2.407t-.042,3.661q0,1.917.05,3.312Zm16.977-2.781A3.736,3.736,0,0,1,157.22-.872,4.393,4.393,0,0,1,154.045.241a7.558,7.558,0,0,1-1.32-.1,3.988,3.988,0,0,1-1.1-.365,2.675,2.675,0,0,1-.872-.689,3.3,3.3,0,0,1-.569-1.092,5.511,5.511,0,0,1-.241-1.544q-.083-3.237-.083-5.5a6.951,6.951,0,0,0-.042-.818,2.171,2.171,0,0,0-.108-.51,2.943,2.943,0,0,0-.145-.311,1.581,1.581,0,0,0-.145-.228l.116-.291.382-.108a2.975,2.975,0,0,1,.8-.108,2.271,2.271,0,0,1,.963.2q-.083,2.108-.083,7.446a3.994,3.994,0,0,0,.178,1.253,2.377,2.377,0,0,0,.444.838,2.12,2.12,0,0,0,.635.486,2.456,2.456,0,0,0,.685.241,3.884,3.884,0,0,0,.656.054,3.282,3.282,0,0,0,2.088-.66,2.191,2.191,0,0,0,.909-1.615q.066,0,.066-5.9a2.879,2.879,0,0,0-.44-1.834l.116-.291a1.538,1.538,0,0,1,.855-.2,1.294,1.294,0,0,1,.764.183Q158.378-7.562,158.378-3.686Zm12.047,1.1a.805.805,0,0,1,.066.357,1.841,1.841,0,0,1-.523,1.287,3.328,3.328,0,0,1-1.4.863,5.972,5.972,0,0,1-1.938.3A5.056,5.056,0,0,1,164.518-.2a4.235,4.235,0,0,1-1.556-1.179,5.306,5.306,0,0,1-.938-1.764,7.217,7.217,0,0,1-.324-2.208,6.983,6.983,0,0,1,.677-3.125,5.112,5.112,0,0,1,1.917-2.142,5.307,5.307,0,0,1,2.851-.768,5.139,5.139,0,0,1,2.059.419,2.357,2.357,0,0,1,1.253.992,1.787,1.787,0,0,1-.332.834,1.705,1.705,0,0,1-.739.71l-.274-.216a1.112,1.112,0,0,0-.129-.461,2.743,2.743,0,0,0-.369-.56,1.9,1.9,0,0,0-.685-.494,2.355,2.355,0,0,0-.992-.2,3.24,3.24,0,0,0-1.245.232,2.743,2.743,0,0,0-.95.635,3.658,3.658,0,0,0-.652.955,4.933,4.933,0,0,0-.39,1.17,6.526,6.526,0,0,0-.125,1.291,7.526,7.526,0,0,0,.241,1.926,5.871,5.871,0,0,0,.7,1.639,3.4,3.4,0,0,0,1.2,1.154,3.293,3.293,0,0,0,1.673.427A3.934,3.934,0,0,0,169.1-1.37,2.9,2.9,0,0,0,170.424-2.582Zm7.5-9a13.5,13.5,0,0,0,.407,1.444l2.988,8.774a5.535,5.535,0,0,0,.6,1.361h-2.059a2.522,2.522,0,0,0-.116-.581L178.6-3.91H174.66L173.365-.224a1.214,1.214,0,0,0-.029.133.45.45,0,0,1-.021.091h-1.262l3.86-10.135a2.286,2.286,0,0,1,.257-.569,1.682,1.682,0,0,1,.315-.378,1.547,1.547,0,0,1,.374-.228,2.026,2.026,0,0,1,.365-.129q.149-.033.374-.075T177.922-11.58Zm.39,6.856L176.66-9.571l-1.718,4.848Zm10.843-6.466H185.7l-2.341-.1a1.463,1.463,0,0,0-.336.722,2.614,2.614,0,0,0-.05.78,1.08,1.08,0,0,0,.112.44h.324a.884.884,0,0,1,.544-.647,2.67,2.67,0,0,1,1.241-.257h1.3a7.866,7.866,0,0,1,.075,1.295l.008,2.681q.017,2.689-.008,6V0h1.851q-.1-.623-.1-.747-.017-.664-.021-1.859t0-2.465q.008-1.27.021-2.411t.021-1.947q.008-.805.008-.822h1.3a2.67,2.67,0,0,1,1.241.257.884.884,0,0,1,.544.647h.324a1.08,1.08,0,0,0,.112-.44,2.692,2.692,0,0,0-.046-.78,1.436,1.436,0,0,0-.332-.722ZM196.512,0h-1.876q.033-1.129.033-9.048a6.843,6.843,0,0,0-.042-.813,2.239,2.239,0,0,0-.108-.51,3.363,3.363,0,0,0-.141-.315,1.086,1.086,0,0,0-.149-.228l.116-.291.382-.108a2.975,2.975,0,0,1,.8-.108,2.235,2.235,0,0,1,.963.2q-.166,3.818-.166,6.732A24.15,24.15,0,0,0,196.512,0Zm8.643-11.389a5.1,5.1,0,0,0-2.117.444,5.042,5.042,0,0,0-1.693,1.224,5.637,5.637,0,0,0-1.108,1.9,7.093,7.093,0,0,0-.4,2.416,7.784,7.784,0,0,0,.245,2,5.564,5.564,0,0,0,.664,1.581A4.934,4.934,0,0,0,201.718-.7a3.934,3.934,0,0,0,1.175.7,3.629,3.629,0,0,0,1.266.228,5.262,5.262,0,0,0,2.9-.8,5.269,5.269,0,0,0,1.922-2.162,7.166,7.166,0,0,0,.7-3.055,7.655,7.655,0,0,0-.357-2.42,4.848,4.848,0,0,0-.979-1.76,4.315,4.315,0,0,0-1.436-1.05A4.226,4.226,0,0,0,205.155-11.389ZM204.972-.8a2.365,2.365,0,0,1-1.664-.739,4.987,4.987,0,0,1-1.2-1.922,7.219,7.219,0,0,1-.432-2.494,6.264,6.264,0,0,1,.374-2.2,3.9,3.9,0,0,1,1.038-1.594,2.173,2.173,0,0,1,1.478-.589,2.361,2.361,0,0,1,1.615.685,4.751,4.751,0,0,1,1.2,1.868,7.168,7.168,0,0,1,.448,2.561A6.423,6.423,0,0,1,207.458-3a3.949,3.949,0,0,1-1.029,1.61A2.123,2.123,0,0,1,204.972-.8Zm16.247-2.855q.033,0,.033-5.429a2.879,2.879,0,0,0-.44-1.834l.116-.291a1.52,1.52,0,0,1,.847-.2,1.312,1.312,0,0,1,.772.183q-.208,4.358-.208,7.977,0,1.917.083,3.246h-.93l-6.466-7.4-.315-.432a3.515,3.515,0,0,1-.382-.623,4.357,4.357,0,0,1,.058.747q0,.415-.021,1.253t-.021,1.262A50.258,50.258,0,0,0,214.52,0h-1.229V-.274q.025-2.208.025-6.068V-9.081a5.032,5.032,0,0,0-.091-1.083,2.014,2.014,0,0,0-.357-.751l.125-.291a1.678,1.678,0,0,1,1.013-.166l6.7,7.7a2.756,2.756,0,0,1,.432.664l.2.423L221.277-3A5.149,5.149,0,0,1,221.219-3.652ZM9.6,17.418a.805.805,0,0,1,.066.357,1.841,1.841,0,0,1-.523,1.287,3.328,3.328,0,0,1-1.4.863,5.972,5.972,0,0,1-1.938.3A5.056,5.056,0,0,1,3.7,19.8a4.235,4.235,0,0,1-1.556-1.179A5.306,5.306,0,0,1,1.2,16.854,7.217,7.217,0,0,1,.88,14.646a6.983,6.983,0,0,1,.677-3.125A5.112,5.112,0,0,1,3.474,9.379a5.307,5.307,0,0,1,2.851-.768,5.139,5.139,0,0,1,2.059.419,2.357,2.357,0,0,1,1.253.992,1.787,1.787,0,0,1-.332.834,1.705,1.705,0,0,1-.739.71l-.274-.216a1.112,1.112,0,0,0-.129-.461,2.743,2.743,0,0,0-.369-.56,1.9,1.9,0,0,0-.685-.494,2.355,2.355,0,0,0-.992-.2,3.24,3.24,0,0,0-1.245.232,2.743,2.743,0,0,0-.95.635,3.658,3.658,0,0,0-.652.955,4.933,4.933,0,0,0-.39,1.17,6.526,6.526,0,0,0-.125,1.291A7.526,7.526,0,0,0,3,15.841a5.871,5.871,0,0,0,.7,1.639,3.4,3.4,0,0,0,1.2,1.154,3.293,3.293,0,0,0,1.673.427A3.934,3.934,0,0,0,8.28,18.63,2.9,2.9,0,0,0,9.6,17.418Zm7.7-8.807a5.1,5.1,0,0,0-2.117.444,5.041,5.041,0,0,0-1.693,1.224,5.637,5.637,0,0,0-1.108,1.9,7.092,7.092,0,0,0-.4,2.416,7.784,7.784,0,0,0,.245,2,5.564,5.564,0,0,0,.664,1.581,4.934,4.934,0,0,0,.975,1.125,3.934,3.934,0,0,0,1.175.7,3.629,3.629,0,0,0,1.266.228,5.2,5.2,0,0,0,4.819-2.963,7.166,7.166,0,0,0,.7-3.055,7.656,7.656,0,0,0-.357-2.42,4.848,4.848,0,0,0-.979-1.76,4.315,4.315,0,0,0-1.436-1.05A4.226,4.226,0,0,0,17.3,8.611ZM17.118,19.2a2.365,2.365,0,0,1-1.664-.739,4.987,4.987,0,0,1-1.2-1.922,7.219,7.219,0,0,1-.432-2.494,6.264,6.264,0,0,1,.374-2.2,3.9,3.9,0,0,1,1.038-1.594,2.173,2.173,0,0,1,1.478-.589,2.361,2.361,0,0,1,1.615.685,4.751,4.751,0,0,1,1.2,1.868,7.168,7.168,0,0,1,.448,2.561A6.423,6.423,0,0,1,19.6,17a3.949,3.949,0,0,1-1.029,1.61A2.123,2.123,0,0,1,17.118,19.2ZM29.655,8.611a5.1,5.1,0,0,0-2.117.444,5.041,5.041,0,0,0-1.693,1.224,5.637,5.637,0,0,0-1.108,1.9,7.092,7.092,0,0,0-.4,2.416,7.784,7.784,0,0,0,.245,2,5.564,5.564,0,0,0,.664,1.581,4.934,4.934,0,0,0,.975,1.125,3.934,3.934,0,0,0,1.175.7,3.629,3.629,0,0,0,1.266.228,5.2,5.2,0,0,0,4.819-2.963,7.166,7.166,0,0,0,.7-3.055,7.656,7.656,0,0,0-.357-2.42,4.848,4.848,0,0,0-.979-1.76,4.315,4.315,0,0,0-1.436-1.05A4.226,4.226,0,0,0,29.655,8.611ZM29.472,19.2a2.365,2.365,0,0,1-1.664-.739,4.987,4.987,0,0,1-1.2-1.922,7.219,7.219,0,0,1-.432-2.494,6.264,6.264,0,0,1,.374-2.2,3.9,3.9,0,0,1,1.038-1.594,2.173,2.173,0,0,1,1.478-.589,2.361,2.361,0,0,1,1.615.685,4.751,4.751,0,0,1,1.2,1.868,7.168,7.168,0,0,1,.448,2.561A6.423,6.423,0,0,1,31.958,17a3.949,3.949,0,0,1-1.029,1.61A2.123,2.123,0,0,1,29.472,19.2Zm10.112.8H37.725v-.274q0-.523.012-2.013t0-2.237q0-.5.008-1.395t.008-1.386q0-.49-.017-1.175t-.062-1.083a5.49,5.49,0,0,0-.145-.776,1.5,1.5,0,0,0-.249-.56l.116-.291q3.129-.083,3.254-.083a5.793,5.793,0,0,1,1.046.091,4.033,4.033,0,0,1,1,.332,3.017,3.017,0,0,1,.872.614,2.808,2.808,0,0,1,.6,1,4.04,4.04,0,0,1,.232,1.419,3.251,3.251,0,0,1-.639,1.98,3.654,3.654,0,0,1-1.7,1.266,19.686,19.686,0,0,1,1.951,2.258A29.955,29.955,0,0,0,45.976,20h-2.3a7.521,7.521,0,0,0-.627-1.017q-.411-.577-.867-1.116t-.959-1.112q-.5-.573-.892-1a4.313,4.313,0,0,1-.9-.1Q39.5,19.4,39.584,20Zm.913-5.1a2.4,2.4,0,0,0,1.706-.647,2.22,2.22,0,0,0,.693-1.7,3.692,3.692,0,0,0-.237-1.374,2.245,2.245,0,0,0-.618-.913,2.633,2.633,0,0,0-.8-.469,2.225,2.225,0,0,0-.847-.133l-.921.033q-.05.614-.05,4.541v.506A2.559,2.559,0,0,0,40.5,14.9ZM52.237,20h-3.6q.017-.291.017-.8V11.126q0-.44-.017-.726a3.335,3.335,0,0,0-.12-.668,1.719,1.719,0,0,0-.3-.631l.116-.291,3.843-.083a5.567,5.567,0,0,1,1.569.187,4.946,4.946,0,0,1,1.424.639,4.868,4.868,0,0,1,1.162,1.058,4.75,4.75,0,0,1,.78,1.511,6.3,6.3,0,0,1,.286,1.942,7.231,7.231,0,0,1-.369,2.341,5.892,5.892,0,0,1-1.029,1.884,4.661,4.661,0,0,1-1.631,1.253A4.932,4.932,0,0,1,52.237,20Zm.208-.9a2.323,2.323,0,0,0,1.116-.3,3.35,3.35,0,0,0,.988-.826,4.214,4.214,0,0,0,.71-1.316,5.3,5.3,0,0,0,.282-1.7,6.328,6.328,0,0,0-.535-2.7,4.653,4.653,0,0,0-1.515-1.922,3.3,3.3,0,0,0-2.1-.652l-.955.033q0,.058-.042,2.407t-.042,3.661q0,1.917.05,3.312ZM62.8,20H60.922q.033-1.129.033-9.048a6.842,6.842,0,0,0-.042-.813,2.239,2.239,0,0,0-.108-.51,3.364,3.364,0,0,0-.141-.315,1.086,1.086,0,0,0-.149-.228l.116-.291.382-.108a2.976,2.976,0,0,1,.8-.108,2.235,2.235,0,0,1,.963.2q-.166,3.818-.166,6.732A24.15,24.15,0,0,0,62.8,20Zm12.354-3.652q.033,0,.033-5.429a2.879,2.879,0,0,0-.44-1.834l.116-.291a1.52,1.52,0,0,1,.847-.2,1.312,1.312,0,0,1,.772.183q-.208,4.358-.208,7.977,0,1.917.083,3.246h-.93l-6.466-7.4-.315-.432a3.516,3.516,0,0,1-.382-.623,4.358,4.358,0,0,1,.058.747q0,.415-.021,1.253t-.021,1.262A50.258,50.258,0,0,0,68.453,20H67.224v-.274q.025-2.208.025-6.068V10.919a5.032,5.032,0,0,0-.091-1.083,2.014,2.014,0,0,0-.357-.751l.125-.291a1.678,1.678,0,0,1,1.013-.166l6.7,7.7a2.756,2.756,0,0,1,.432.664l.2.423L75.21,17A5.15,5.15,0,0,1,75.151,16.348ZM84.89,8.42A13.5,13.5,0,0,0,85.3,9.865l2.988,8.774a5.535,5.535,0,0,0,.6,1.361H86.824a2.522,2.522,0,0,0-.116-.581L85.571,16.09H81.628l-1.295,3.686a1.212,1.212,0,0,0-.029.133.451.451,0,0,1-.021.091H79.022l3.86-10.135a2.287,2.287,0,0,1,.257-.569,1.682,1.682,0,0,1,.315-.378,1.547,1.547,0,0,1,.374-.228,2.027,2.027,0,0,1,.365-.129q.149-.033.374-.075T84.89,8.42Zm.39,6.856-1.652-4.848L81.91,15.277ZM96.123,8.811H92.67l-2.341-.1a1.463,1.463,0,0,0-.336.722,2.614,2.614,0,0,0-.05.78,1.08,1.08,0,0,0,.112.44h.324a.884.884,0,0,1,.544-.647,2.67,2.67,0,0,1,1.241-.257h1.3a7.866,7.866,0,0,1,.075,1.295l.008,2.681q.017,2.689-.008,6V20h1.851q-.1-.623-.1-.747-.017-.664-.021-1.859t0-2.465q.008-1.27.021-2.411t.021-1.947q.008-.805.008-.822h1.3a2.67,2.67,0,0,1,1.241.257.884.884,0,0,1,.544.647h.324a1.08,1.08,0,0,0,.112-.44,2.692,2.692,0,0,0-.046-.78,1.436,1.436,0,0,0-.332-.722ZM103.48,20H101.6q.033-1.129.033-9.048a6.841,6.841,0,0,0-.042-.813,2.239,2.239,0,0,0-.108-.51,3.365,3.365,0,0,0-.141-.315,1.086,1.086,0,0,0-.149-.228l.116-.291.382-.108a2.976,2.976,0,0,1,.8-.108,2.235,2.235,0,0,1,.963.2q-.166,3.818-.166,6.732A24.149,24.149,0,0,0,103.48,20Zm12.354-3.652q.033,0,.033-5.429a2.879,2.879,0,0,0-.44-1.834l.116-.291a1.52,1.52,0,0,1,.847-.2,1.312,1.312,0,0,1,.772.183q-.208,4.358-.208,7.977,0,1.917.083,3.246h-.93l-6.466-7.4-.315-.432a3.516,3.516,0,0,1-.382-.623A4.358,4.358,0,0,1,109,12.3q0,.415-.021,1.253t-.021,1.262A50.258,50.258,0,0,0,109.135,20h-1.229v-.274q.025-2.208.025-6.068V10.919a5.032,5.032,0,0,0-.091-1.083,2.014,2.014,0,0,0-.357-.751l.125-.291a1.678,1.678,0,0,1,1.013-.166l6.7,7.7a2.756,2.756,0,0,1,.432.664l.2.423L115.892,17A5.15,5.15,0,0,1,115.834,16.348Zm10.112-7.736h.017a5.139,5.139,0,0,1,2.059.419,2.357,2.357,0,0,1,1.253.992,1.787,1.787,0,0,1-.332.834,1.705,1.705,0,0,1-.739.71l-.274-.216a1.112,1.112,0,0,0-.129-.461,2.663,2.663,0,0,0-.374-.56,1.931,1.931,0,0,0-.693-.494,2.383,2.383,0,0,0-1-.2,2.987,2.987,0,0,0-2.37,1.075,4.755,4.755,0,0,0-.975,3.067,8.144,8.144,0,0,0,.216,1.926,5.751,5.751,0,0,0,.577,1.515,4.5,4.5,0,0,0,.843,1.071,3.269,3.269,0,0,0,1.021.656,2.978,2.978,0,0,0,1.1.212,4.867,4.867,0,0,0,.963-.133l.606-.125V17.584a6.949,6.949,0,0,0-.042-.818,2.171,2.171,0,0,0-.108-.51,2.943,2.943,0,0,0-.145-.311,1.581,1.581,0,0,0-.145-.228l.116-.291.149-.058a3.924,3.924,0,0,1,.44-.108,2.956,2.956,0,0,1,.581-.058,2.283,2.283,0,0,1,.971.208q-.1,1.926-.116,2.689l.017,1.544-.481.083a18.655,18.655,0,0,1-3.769.5,4.179,4.179,0,0,1-1.751-.382,4.728,4.728,0,0,1-1.494-1.079A5.08,5.08,0,0,1,120.891,17a6.815,6.815,0,0,1-.39-2.349,6.983,6.983,0,0,1,.677-3.125,5.112,5.112,0,0,1,1.917-2.142A5.307,5.307,0,0,1,125.946,8.611ZM139.331,20l.017-1.154V10.994q0-.382-.029-.685a3.841,3.841,0,0,0-.071-.481,2.236,2.236,0,0,0-.1-.324.916.916,0,0,0-.12-.224,1.541,1.541,0,0,1-.12-.178l.116-.291,3.013-.083a4.38,4.38,0,0,1,1.453.178,2.682,2.682,0,0,1,1.033.56,2.543,2.543,0,0,1,.589.793,2.107,2.107,0,0,1,.2.9,2.337,2.337,0,0,1-.436,1.37,3.808,3.808,0,0,1-1.208,1.079,4.269,4.269,0,0,1,.913.382,3.485,3.485,0,0,1,.751.581,2.4,2.4,0,0,1,.535.855,3.2,3.2,0,0,1,.191,1.137,3.121,3.121,0,0,1-1.1,2.5,4.392,4.392,0,0,1-2.947.934Zm2.432-5.794-.714-.033q-.033,3.329.033,5.014h1.087a2.413,2.413,0,0,0,1.785-.6,1.991,1.991,0,0,0,.6-1.457A2.818,2.818,0,0,0,143.781,15,2.968,2.968,0,0,0,141.763,14.206Zm.208-.822a6.043,6.043,0,0,1,1.137.108,2.462,2.462,0,0,0,.764-1.859,1.94,1.94,0,0,0-.544-1.448,1.8,1.8,0,0,0-1.357-.519l-.838.017q0,1.087-.017,1.818-.05,1.843-.05,1.884ZM153.86,8.611a5.1,5.1,0,0,0-2.117.444,5.042,5.042,0,0,0-1.693,1.224,5.637,5.637,0,0,0-1.108,1.9,7.093,7.093,0,0,0-.4,2.416,7.784,7.784,0,0,0,.245,2,5.564,5.564,0,0,0,.664,1.581,4.934,4.934,0,0,0,.975,1.125,3.934,3.934,0,0,0,1.175.7,3.629,3.629,0,0,0,1.266.228,5.2,5.2,0,0,0,4.819-2.963,7.166,7.166,0,0,0,.7-3.055,7.655,7.655,0,0,0-.357-2.42,4.848,4.848,0,0,0-.979-1.76,4.315,4.315,0,0,0-1.436-1.05A4.226,4.226,0,0,0,153.86,8.611ZM153.677,19.2a2.365,2.365,0,0,1-1.664-.739,4.987,4.987,0,0,1-1.2-1.922,7.219,7.219,0,0,1-.432-2.494,6.264,6.264,0,0,1,.374-2.2,3.9,3.9,0,0,1,1.038-1.594,2.173,2.173,0,0,1,1.478-.589,2.361,2.361,0,0,1,1.615.685,4.751,4.751,0,0,1,1.2,1.868,7.168,7.168,0,0,1,.448,2.561A6.423,6.423,0,0,1,156.163,17a3.949,3.949,0,0,1-1.029,1.61A2.123,2.123,0,0,1,153.677,19.2ZM166.014,8.42a13.5,13.5,0,0,0,.407,1.444l2.988,8.774a5.535,5.535,0,0,0,.6,1.361h-2.059a2.522,2.522,0,0,0-.116-.581l-1.137-3.329h-3.943l-1.295,3.686a1.214,1.214,0,0,0-.029.133.451.451,0,0,1-.021.091h-1.262l3.86-10.135a2.286,2.286,0,0,1,.257-.569,1.682,1.682,0,0,1,.315-.378,1.547,1.547,0,0,1,.374-.228,2.026,2.026,0,0,1,.365-.129q.149-.033.374-.075T166.014,8.42Zm.39,6.856-1.652-4.848-1.718,4.848ZM174.616,20h-1.859v-.274q0-.523.012-2.013t0-2.237q0-.5.008-1.395t.008-1.386q0-.49-.017-1.175t-.062-1.083a5.491,5.491,0,0,0-.145-.776,1.5,1.5,0,0,0-.249-.56l.116-.291q3.129-.083,3.254-.083a5.793,5.793,0,0,1,1.046.091,4.033,4.033,0,0,1,1,.332,3.017,3.017,0,0,1,.872.614,2.808,2.808,0,0,1,.6,1,4.04,4.04,0,0,1,.232,1.419,3.251,3.251,0,0,1-.639,1.98,3.654,3.654,0,0,1-1.7,1.266,19.686,19.686,0,0,1,1.951,2.258A29.954,29.954,0,0,0,181.008,20h-2.3a7.521,7.521,0,0,0-.627-1.017q-.411-.577-.867-1.116t-.959-1.112q-.5-.573-.892-1a4.313,4.313,0,0,1-.9-.1Q174.533,19.4,174.616,20Zm.913-5.1a2.4,2.4,0,0,0,1.706-.647,2.22,2.22,0,0,0,.693-1.7,3.692,3.692,0,0,0-.237-1.374,2.245,2.245,0,0,0-.618-.913,2.633,2.633,0,0,0-.8-.469,2.225,2.225,0,0,0-.847-.133l-.921.033q-.05.614-.05,4.541v.506A2.559,2.559,0,0,0,175.529,14.9ZM187.269,20h-3.6q.017-.291.017-.8V11.126q0-.44-.017-.726a3.335,3.335,0,0,0-.12-.668,1.719,1.719,0,0,0-.3-.631l.116-.291,3.843-.083a5.567,5.567,0,0,1,1.569.187,4.946,4.946,0,0,1,1.424.639,4.868,4.868,0,0,1,1.162,1.058,4.75,4.75,0,0,1,.78,1.511,6.3,6.3,0,0,1,.286,1.942,7.231,7.231,0,0,1-.369,2.341,5.892,5.892,0,0,1-1.029,1.884,4.661,4.661,0,0,1-1.631,1.253A4.932,4.932,0,0,1,187.269,20Zm.208-.9a2.323,2.323,0,0,0,1.116-.3,3.35,3.35,0,0,0,.988-.826,4.214,4.214,0,0,0,.71-1.316,5.3,5.3,0,0,0,.282-1.7,6.329,6.329,0,0,0-.535-2.7,4.653,4.653,0,0,0-1.515-1.922,3.3,3.3,0,0,0-2.1-.652l-.955.033q0,.058-.042,2.407t-.042,3.661q0,1.917.05,3.312Z" transform="translate(-0.167 11.58)"/></svg>